<?xml version="1.0" standalone="no"?>
<!DOCTYPE svg PUBLIC "-//W3C//DTD SVG 1.1//EN" "http://www.w3.org/Graphics/SVG/1.1/DTD/svg11.dtd" >
<svg xmlns="http://www.w3.org/2000/svg">
<metadata>Generated by IcoMoon</metadata>
<defs>
<font id="icomoon" horiz-adv-x="1024">
<font-face units-per-em="1024" ascent="896" descent="-128" />
<missing-glyph horiz-adv-x="1024" />
<glyph unicode="&#x20;" d="" />
<glyph unicode="&#xe600;" glyph-name="text" d="M818.622 284.299l-35.658 49.438h-66.557v-198.331l28.53-9.311v-9.888h-95.087v9.888l28.53 9.496v198.145h-66.557l-35.658-49.438h-2.369l19.013 79.102h209.166l19.013-79.102h-2.369zM656.196 569.394h-144.196v-413.203l61.798-19.384v-20.599h-205.994v20.599l61.798 19.775v412.811h-144.196l-77.248-102.997h-5.15l41.199 164.795h453.186l41.199-164.795h-5.15l-77.248 102.997z" />
<glyph unicode="&#xe61f;" glyph-name="tag" d="M414.058 393.286c-48.407 0.162-87.765 39.722-87.548 87.998 0.216 48.233 39.527 87.271 87.789 87.184 48.757-0.091 87.652-39.39 87.427-88.332-0.219-47.846-39.753-87.007-87.668-86.85v0zM414.044 437.237c24.196-0.074 43.946 19.553 43.971 43.689 0.026 23.914-19.588 43.655-43.473 43.759-24.27 0.103-43.961-19.272-44.201-43.491-0.234-24.019 19.515-43.881 43.703-43.958v0zM813.858 375.014c-94.177 94.2-188.33 188.424-282.617 282.515-11.953 11.923-23.522 24.135-37.458 34.179-14.512 10.455-29.58 16.527-47.387 16.444-31.638-0.152-63.274-0.044-94.912-0.044 0-0.009 0-0.022-0.004-0.034-32.996 0-65.998 0.289-98.991-0.079-36.955-0.411-65.231-29.297-65.275-66.248-0.068-65.387-0.056-130.78 0.052-196.17 0.010-5.099 0.617-10.285 1.684-15.274 3.863-18.030 14.881-32.322 27.237-44.757 101.45-102.107 203.329-203.791 305.19-305.492 26.861-26.813 71.313-26.634 98.21 0.212 65.14 65.011 130.228 130.076 195.143 195.317 5.142 5.162 9.615 11.412 12.898 17.917 13.739 27.201 8.040 59.705-13.771 81.514zM774.748 311.833c-47.66-47.142-95.811-95.36-142.378-141.99-16.496-16.518-32.993-33.036-49.5-49.542-3.895-3.895-8.229-5.953-12.535-5.953-4.257 0-8.528 2.021-12.351 5.843l-54.158 54.15c-81.163 81.148-165.090 165.057-247.497 247.715-5.266 5.281-9.756 12.28-13.716 18.456-0.533 0.831-1.078 2.864-1.083 5.127-0.138 57.42-0.165 119.735-0.083 196.111 0.007 7.565 4.667 11.919 12.784 11.946 10.606 0.038 22.164 0.055 36.378 0.055 7.852 0 15.706-0.005 23.56-0.010 7.858-0.005 15.714-0.010 23.569-0.010h13.619c8.647 0 17.293-0.007 25.939-0.013 8.651-0.007 17.303-0.014 25.955-0.014 16.901 0 30.58 0.028 43.050 0.087h0.11c4.757 0 8.638-1.52 14.318-5.608 16.931-12.18 31.095-27.009 46.090-42.709 5.585-5.848 11.361-11.895 17.24-17.732l124.867-124.566c41.196-41.201 83.793-83.803 125.857-125.552 3.252-3.227 5.114-7.924 5.11-12.887-0.004-4.967-1.879-9.67-5.145-12.901z" />
<glyph unicode="&#xe632;" glyph-name="full" d="M285.611 647.672h94.553c14.562 0 26.367 11.805 26.367 26.367s-11.805 26.367-26.367 26.367v0h-158.203c-14.562 0-26.367-11.805-26.367-26.367v0-158.203c0-14.562 11.805-26.367 26.367-26.367s26.367 11.805 26.367 26.367v0 94.553l113.181-113.181c4.801-4.962 11.52-8.043 18.959-8.043 14.562 0 26.367 11.805 26.367 26.367 0 7.445-3.086 14.17-8.049 18.965l-0.008 0.007-113.168 113.168zM775.672 610.389v-94.553c0-14.562 11.805-26.367 26.367-26.367s26.367 11.805 26.367 26.367v0 158.203c0 14.562-11.805 26.367-26.367 26.367v0h-158.203c-14.562 0-26.367-11.805-26.367-26.367s11.805-26.367 26.367-26.367v0h94.553l-113.181-113.181c-4.962-4.801-8.043-11.52-8.043-18.959 0-14.562 11.805-26.367 26.367-26.367 7.445 0 14.17 3.086 18.965 8.049l0.007 0.008 113.168 113.168zM285.611 120.328h94.553c14.562 0 26.367-11.805 26.367-26.367s-11.805-26.367-26.367-26.367v0h-158.203c-14.562 0-26.367 11.805-26.367 26.367v0 158.203c0 14.562 11.805 26.367 26.367 26.367s26.367-11.805 26.367-26.367v0-94.553l113.181 113.181c4.801 4.962 11.52 8.043 18.959 8.043 14.562 0 26.367-11.805 26.367-26.367 0-7.445-3.086-14.17-8.049-18.965l-0.008-0.007-113.168-113.168zM775.672 157.611v94.553c0 14.562 11.805 26.367 26.367 26.367s26.367-11.805 26.367-26.367v0-158.203c0-14.562-11.805-26.367-26.367-26.367v0h-158.203c-14.562 0-26.367 11.805-26.367 26.367s11.805 26.367 26.367 26.367v0h94.553l-113.181 113.181c-4.962 4.801-8.043 11.52-8.043 18.959 0 14.562 11.805 26.367 26.367 26.367 7.445 0 14.17-3.086 18.965-8.049l0.007-0.008 113.168-113.168z" />
<glyph unicode="&#xe633;" glyph-name="close" d="M649.977 489.771c-0.337 8.366-3.461 16.641-9.85 23.029-6.387 6.385-14.64 9.49-23.028 9.85-9.312 0.36-18.712-2.745-25.82-9.85l-79.184-79.206-79.185 79.206c-7.107 7.105-16.508 10.21-25.818 9.85-8.365-0.36-16.641-3.465-23.029-9.85-6.388-6.387-9.513-14.663-9.85-23.029-0.383-9.31 2.742-18.711 9.85-25.818l79.184-79.206-79.184-79.163c-7.108-7.107-10.233-16.508-9.85-25.818 0.337-8.365 3.462-16.641 9.85-23.029s14.663-9.536 23.029-9.852c9.31-0.404 18.711 2.745 25.818 9.852l79.185 79.162 79.184-79.162c7.108-7.107 16.508-10.255 25.82-9.852 8.387 0.316 16.64 3.464 23.028 9.852s9.512 14.664 9.85 23.029c0.382 9.31-2.742 18.711-9.85 25.818l-79.184 79.163 79.184 79.206c7.108 7.107 10.232 16.508 9.85 25.818zM512.096 753.209c-203.483 0-368.464-164.982-368.464-368.464 0-203.483 164.98-368.463 368.464-368.463s368.464 164.98 368.464 368.463c0 203.482-164.98 368.464-368.464 368.464zM512.096 85.369c-165.070 0-299.376 134.305-299.376 299.377 0 165.070 134.307 299.377 299.376 299.377s299.377-134.307 299.377-299.377c0-165.072-134.307-299.377-299.377-299.377z" />
<glyph unicode="&#xe649;" glyph-name="col" d="M410.75 117.797h-142.172c-39.656 0-71.719 35.859-71.719 80.156v394.875c0 44.297 32.063 80.156 71.719 80.156h142.172c15.188 0 27.422-12.234 27.422-27.422v-500.344c0-15.188-12.234-27.422-27.422-27.422zM268.578 618.141c-8.859 0-16.875-12.234-16.875-25.313v-394.453c0-14.766 8.859-25.313 16.875-25.313h114.75v445.078h-114.75zM737.703 116.109h-142.172c-15.188 0-27.422 12.234-27.422 27.422v500.344c0 15.188 12.234 27.422 27.422 27.422h142.172c39.656 0 71.719-35.859 71.719-80.156v-394.453c0-44.719-32.063-80.578-71.719-80.578zM622.953 170.953h114.75c8.859 0 16.875 12.234 16.875 25.313v394.453c0 14.766-8.859 25.313-16.875 25.313h-114.75v-445.078zM597.219 117.797h-186.469c-15.188 0-27.422 12.234-27.422 27.422v498.656c0 15.188 12.234 27.422 27.422 27.422h186.469c15.188 0 27.422-12.234 27.422-27.422v-498.656c0-15.188-12.234-27.422-27.422-27.422zM438.172 172.641h131.625v443.813h-131.625v-443.813z" />
<glyph unicode="&#xe66f;" glyph-name="rrotate" d="M349.78 499.871v-139.046h92.697v-46.349h-92.697v-46.349h139.046v231.743h-139.046zM442.477 407.174h-46.349v46.349h46.349v-46.349zM535.174 499.871v-231.743h139.046v231.743h-139.046zM627.871 314.477h-46.349v139.046h46.349v-139.046zM834.586 369.632h0.973v1.39l-0.973-1.39zM861.468 410.882l-25.955-39.86-0.927-1.39-25.955-39.86-43.568 86.208 23.174-1.39c-15.295 139.046-133.020 247.501-276.237 247.501-153.414 0-278.091-124.678-278.091-278.091s124.678-278.091 278.091-278.091c101.503 0 190.493 54.691 238.695 136.265h1.344l0.51-0.51 38.423-22.664c-57.221-96.076-160.554-159.439-278.687-159.439-0.1 0-0.2 0-0.301 0h0.016c-179.369 0-324.44 145.071-324.44 324.44s145.071 324.44 324.44 324.44c170.099 0 309.145-130.239 323.050-296.167l26.419-1.39z" />
<glyph unicode="&#xe670;" glyph-name="lrotate" d="M349.78 499.871v-139.046h92.697v-46.349h-92.697v-46.349h139.046v231.743h-139.046zM442.477 407.174h-46.349v46.349h46.349v-46.349zM535.174 499.871v-231.743h139.046v231.743h-139.046zM627.871 314.477h-46.349v139.046h46.349v-139.046zM834.586 369.632h0.973v1.39l-0.973-1.39zM175.046 410.882l25.955-39.86 0.927-1.39 25.955-39.86 43.568 86.208-23.174-1.39c15.295 139.046 133.020 247.501 276.237 247.501 153.46 0 278.091-124.678 278.091-278.091s-124.631-278.091-278.091-278.091c-101.503 0-190.493 54.691-238.695 136.265h-1.39l-0.463-0.463-38.469-22.711c57.254-96.079 160.611-159.439 278.767-159.439 0.089 0 0.177 0 0.266 0h-0.014c179.415 0 324.44 145.071 324.44 324.44s-145.025 324.44-324.44 324.44c-170.099 0-309.145-130.239-323.050-296.167l-26.419-1.39z" />
<glyph unicode="&#xe6ca;" glyph-name="signs" d="M640.278 662.32c45.473 11.052 88.464 0.925 122.496-20.789 63.585-49.149 80.601-140.753 17.99-221.719l-26.826-34.714c-9.616-6.451-31.938-35.371-37.026-36.004-46.033-47.591-62.562-80.966-56.014-132.282 7.23-56.355 57.986-86.321 151.537-84.715 5.161 0.633 10.906-3.846 16.724-8.277 0.657-5.136 1.29-10.273-3.213-16.067-4.43-5.745-9.567-6.427-14.679-7.084-114.754 0.901-177.025 39.826-186.908 116.726-7.863 61.516 13.121 100.684 62.952 159.181 5.112 0.657 27.459 29.577 37.051 36.004 8.934 11.539 18.55 18.014 27.459 29.553 44.037 62.952 34.835 134.74-11.417 170.476-17.381 13.413-34.056 21.69-54.553 19.061l17.332-13.389c17.381-13.389 20.010-33.935 5.915-46.131l-332.651-412.619c-4.479-5.745-18.55-17.99-28.774-19.304l-119.087-46.52c-19.864-7.741-31.427 1.193-28.92 22.347l15.653 121.838c-1.315 10.249 7.619 21.812 12.099 27.605l332.676 412.595c13.413 17.357 34.568 14.849 51.243 6.597l28.944-22.372zM255.678 248.289s-3.822-10.906-8.277-16.7l-13.803-95.547 94.111 38.097c5.112 0.609 9.591 6.427 14.046 12.22l332.676 412.619-86.102 61.905-332.651-412.595zM565.982 631.939l86.102-61.881-22.323-28.92-86.102 61.905 22.323 28.896zM296.55 295.198l86.102-61.881-22.347-28.92-86.102 61.929 22.347 28.871z" />
<glyph unicode="&#xe6e2;" glyph-name="list" d="M343.312 521.744v16c0 8.837 7.163 16 16 16v0h23.648c8.837 0 16-7.163 16-16v0-16c0-8.837-7.163-16-16-16v0h-23.648c-8.837 0-16 7.163-16 16v0zM443.472 521.744v16c0 8.837 7.163 16 16 16v0h190.608c8.837 0 16-7.163 16-16v0-16c0-8.837-7.163-16-16-16v0h-190.608c-8.837 0-16 7.163-16 16v0zM343.312 377.040v16c0 8.837 7.163 16 16 16v0h23.648c8.837 0 16-7.163 16-16v0-16c0-8.837-7.163-16-16-16v0h-23.648c-8.837 0-16 7.163-16 16v0zM443.472 377.040v16c0 8.837 7.163 16 16 16v0h190.608c8.837 0 16-7.163 16-16v0-16c0-8.837-7.163-16-16-16v0h-190.608c-8.837 0-16 7.163-16 16v0zM343.312 232.352v16c0 8.837 7.163 16 16 16v0h23.648c8.837 0 16-7.163 16-16v0-16c0-8.837-7.163-16-16-16v0h-23.648c-8.837 0-16 7.163-16 16v0zM443.472 232.352v16c0 8.837 7.163 16 16 16v0h190.608c8.837 0 16-7.163 16-16v0-16c0-8.837-7.163-16-16-16v0h-190.608c-8.837 0-16 7.163-16 16v0zM256 656v-541.92h497.392v541.92h-497.392zM785.392 66.080h-561.392c-8.837 0-16 7.163-16 16v0 605.92c0 8.837 7.163 16 16 16v0h561.392c8.837 0 16-7.163 16-16v0-605.92c0-8.837-7.163-16-16-16v0z" />
<glyph unicode="&#xe6e3;" glyph-name="check" d="M385.392 704h16c8.837 0 16-7.163 16-16v0-57.040c0-8.837-7.163-16-16-16v0h-16c-8.837 0-16 7.163-16 16v0 57.040c0 8.837 7.163 16 16 16v0zM496.688 704h16c8.837 0 16-7.163 16-16v0-57.040c0-8.837-7.163-16-16-16v0h-16c-8.837 0-16 7.163-16 16v0 57.040c0 8.837 7.163 16 16 16v0zM608 704h16c8.837 0 16-7.163 16-16v0-57.040c0-8.837-7.163-16-16-16v0h-16c-8.837 0-16 7.163-16 16v0 57.040c0 8.837 7.163 16 16 16v0zM692.16 651.472v16c0 8.837 7.163 16 16 16v0h77.232c8.837 0 16-7.163 16-16v0-583.632c0-8.837-7.163-16-16-16v0h-561.392c-8.837 0-16 7.163-16 16v0 583.632c0 8.837 7.163 16 16 16v0h69.92c8.837 0 16-7.163 16-16v0-16c0-8.837-7.163-16-16-16v0h-37.92v-519.632h497.392v519.632h-45.232c-8.837 0-16 7.163-16 16v0zM461.664 298.896l191.136 188.352c2.887 2.847 6.854 4.605 11.232 4.605 4.457 0 8.489-1.823 11.39-4.763l0.002-0.002 11.232-11.392c2.847-2.887 4.605-6.854 4.605-11.232 0-4.457-1.823-8.489-4.763-11.39l-0.002-0.002-213.76-210.688c-2.887-2.847-6.854-4.605-11.232-4.605-4.426 0-8.431 1.797-11.328 4.701l-112.576 112.816c-2.89 2.894-4.677 6.891-4.677 11.304 0 4.429 1.8 8.438 4.708 11.335v0l11.328 11.296c2.894 2.885 6.887 4.669 11.296 4.669 4.425 0 8.431-1.797 11.328-4.7l90.080-90.304z" />
<glyph unicode="&#xe6eb;" glyph-name="meetingover" d="M520.032 719.936c8.837 0 16-7.163 16-16v0l-0.016-49.44h227.2c36.84-0.028 66.906-28.992 68.698-65.392l0.006-0.16 0.080-3.328v-226.192c0-87.568-70.896-158.56-158.368-158.56l-112.688 0.016 111.152-100.224c3.254-2.94 5.29-7.176 5.29-11.887 0-4.139-1.571-7.91-4.15-10.751l0.012 0.013-10.736-11.872c-2.94-3.245-7.169-5.274-11.872-5.274-4.13 0-7.895 1.565-10.733 4.134l0.014-0.012-103.904 93.712v-94.608c0-8.837-7.163-16-16-16v0h-16.048c-8.837 0-16 7.163-16 16v0 94.608l-103.888-93.712c-2.825-2.558-6.59-4.123-10.721-4.123-3.995 0-7.648 1.464-10.451 3.885l0.021-0.017-1.44 1.408-10.736 11.872v0.016c-2.562 2.826-4.13 6.594-4.13 10.729 0 4.707 2.033 8.94 5.268 11.867l0.014 0.012 111.136 100.224h-112.672c-85.984 0-155.952 68.592-158.304 154.112l-0.064 4.432v226.192c0 0.010 0 0.021 0 0.032 0 38.004 30.799 68.814 68.798 68.832l227.17 0.016v49.44c0 8.837 7.163 16 16 16v0h16.064zM763.2 606.432h-502.416c-11.488 0-20.8-9.312-20.8-20.8 0-0.006 0-0.011 0-0.017v0.001-226.192c0-61.024 49.424-110.512 110.384-110.512h323.264c60.96 0 110.384 49.488 110.384 110.512v226.192c0 0.005 0 0.010 0 0.016 0 11.488-9.312 20.8-20.8 20.8v0zM698.608 345.6c8.837 0 16-7.163 16-16v0-16c0-8.837-7.163-16-16-16v0h-92.8c-8.837 0-16 7.163-16 16v0 16c0 8.837 7.163 16 16 16v0h92.8z" />
<glyph unicode="&#xe6ef;" glyph-name="home" d="M490.667 362.667v-256c0-35.346-28.654-64-64-64v0h-192c-35.346 0-64 28.654-64 64v0 192c0 35.346 28.654 64 64 64v0h256zM789.333 362.667c35.346 0 64-28.654 64-64v0-192c0-35.346-28.654-64-64-64v0h-192c-35.346 0-64 28.654-64 64v0 256h256zM426.667 298.667h-192v-192h192v192zM789.333 298.667h-192v-192h192v192zM426.667 725.333c35.346 0 64-28.654 64-64v0-256h-256c-35.346 0-64 28.654-64 64v0 192c0 35.346 28.654 64 64 64v0h192zM693.333 725.333c88.366 0 160-71.634 160-160s-71.634-160-160-160v0c-88.366 0-160 71.634-160 160s71.634 160 160 160v0zM426.667 661.333h-192v-192h192v192zM693.333 661.333c-53.019 0-96-42.981-96-96s42.981-96 96-96v0c53.019 0 96 42.981 96 96s-42.981 96-96 96v0z" />
<glyph unicode="&#xe6f0;" glyph-name="setting" d="M439.264 688c-8.837 0-16-7.163-16-16v0-67.968c-17.759-7.849-33.041-16.842-47.13-27.348l0.634 0.452-58.912 34c-2.295 1.348-5.054 2.144-8 2.144-5.891 0-11.038-3.184-13.815-7.924l-0.041-0.075-80-138.56c-1.348-2.295-2.144-5.054-2.144-8 0-5.891 3.184-11.038 7.924-13.815l0.075-0.041 58.896-34c-0.95-8.061-1.492-17.399-1.492-26.864s0.542-18.803 1.596-27.985l-0.105 1.121-58.88-34c-4.826-2.816-8.017-7.968-8.017-13.866 0-2.28 0.477-4.45 1.337-6.413l-0.040 0.103 0.848-1.68 80-138.56c2.818-4.816 7.965-8 13.856-8 2.945 0 5.705 0.796 8.075 2.184l-0.076-0.041 58.912 34c13.455-10.048 28.737-19.036 44.972-26.273l1.524-0.607v-67.984c0-8.837 7.163-16 16-16v0h160c8.837 0 16 7.163 16 16v0 67.968c17.765 7.848 33.053 16.842 47.146 27.348l-0.634-0.452 58.912-34c2.295-1.348 5.054-2.144 8-2.144 5.891 0 11.038 3.184 13.815 7.924l0.041 0.075 80 138.56c1.35 2.296 2.147 5.058 2.147 8.006 0 5.232-2.511 9.877-6.394 12.797l-0.041 0.030-1.568 1.024-58.896 34c0.95 8.061 1.492 17.399 1.492 26.864s-0.542 18.803-1.596 27.985l0.105-1.121 58.88 34c4.826 2.816 8.017 7.968 8.017 13.866 0 2.28-0.477 4.45-1.337 6.413l0.040-0.103-0.848 1.68-80 138.56c-2.818 4.816-7.965 8-13.856 8-2.945 0-5.705-0.796-8.075-2.184l0.076 0.041-58.912-34c-13.455 10.048-28.737 19.036-44.972 26.273l-1.524 0.607v67.984c0 8.837-7.163 16-16 16v0h-160zM471.264 640h96v-67.376l28.8-12.576c13.152-5.76 25.632-12.976 37.184-21.52l25.28-18.688 58.448 33.728 48-83.136-58.368-33.68 3.472-31.2c0.762-6.467 1.197-13.959 1.197-21.552s-0.435-15.085-1.281-22.451l0.084 0.899-3.472-31.2 58.368-33.68-48-83.136-58.432 33.728-25.296-18.688c-11.552-8.544-24.032-15.76-37.184-21.52l-28.8-12.576v-67.376h-96v67.376l-28.784 12.576c-13.152 5.76-25.632 12.976-37.184 21.52l-25.28 18.688-58.448-33.728-48 83.136 58.368 33.68-3.472 31.2c-0.762 6.467-1.197 13.959-1.197 21.552s0.435 15.085 1.281 22.451l-0.084-0.899 3.472 31.2-58.368 33.68 48 83.136 58.432-33.728 25.296 18.688c10.761 8.044 22.982 15.24 35.966 21.034l1.218 0.486 28.8 12.576v67.376zM518.544 496c-61.856 0-112-50.144-112-112s50.144-112 112-112v0c61.856 0 112 50.144 112 112s-50.144 112-112 112v0zM518.544 448c35.346 0 64-28.654 64-64s-28.654-64-64-64v0c-35.346 0-64 28.654-64 64s28.654 64 64 64v0z" />
<glyph unicode="&#xe714;" glyph-name="seal" d="M772.371 214.47h-520.742c-24.306 0-44.131-19.893-44.131-44.131v-47.186h609.004v47.186c0 24.238-19.893 44.131-44.131 44.131zM740.393 288.067h-180.732c-3.259 7.74-5.024 15.819-5.024 24.17 0 25.324 6.654 48.34 30.348 65.313 47.254 25.867 79.232 75.973 79.232 133.614 0 84.12-68.165 152.285-152.285 152.285s-152.285-68.165-152.285-152.285c0-57.642 32.046-107.747 79.232-133.614 23.763-16.973 30.348-39.989 30.348-65.313 0-8.351-1.765-16.43-5.024-24.17h-180.596v-55.197h456.787v55.197zM236.013 115.549h551.973v-11.067h-551.973z" />
<glyph unicode="&#xe743;" glyph-name="right" d="M593.451 383.872l-233.387 233.515 45.291 45.227 278.613-278.763-278.635-278.464-45.227 45.269z" />
<glyph unicode="&#xe744;" glyph-name="left" d="M641.28 617.387l-45.227 45.227-278.635-278.763 278.613-278.485 45.248 45.269-233.365 233.237z" />
<glyph unicode="&#xe745;" glyph-name="attachment" d="M770.72 421.24l-265.12-266.68c-25.743-25.962-61.425-42.035-100.86-42.035s-75.117 16.073-100.85 42.025l-0.010 0.010c-55.8 56.14-55.8 147.26 0 203.4l269.080 270.68c15.525 15.662 37.045 25.358 60.83 25.358s45.305-9.696 60.824-25.352l0.006-0.006c15.63-15.767 25.289-37.475 25.289-61.44s-9.658-45.673-25.295-61.446l0.006 0.006-261.34-262.86c-5.39-5.453-12.871-8.83-21.14-8.83s-15.75 3.377-21.137 8.828l-0.003 0.003c-5.468 5.526-8.846 13.128-8.846 21.52s3.378 15.994 8.848 21.523l-0.003-0.003 234.5 235.92-42.56 42.3-234.5-235.92c-16.256-16.372-26.303-38.928-26.303-63.83s10.047-47.458 26.308-63.835l-0.005 0.005c16.261-16.391 38.796-26.538 63.7-26.538s47.439 10.147 63.694 26.532l0.006 0.006 261.3 262.88c26.413 26.612 42.736 63.27 42.736 103.74s-16.323 77.128-42.745 103.749l0.009-0.009c-26.394 26.587-62.96 43.045-103.37 43.045s-76.976-16.458-103.361-43.037l-0.009-0.009-269.080-270.66c-79.1-79.56-79.1-208.48 0-288.020 36.613-36.888 87.34-59.723 143.4-59.723s106.788 22.835 143.388 59.71l0.012 0.012 265.16 266.68-42.56 42.3z" />
<glyph unicode="&#xe747;" glyph-name="category" d="M256 161.899v-64h-85.333v64h85.333zM853.333 161.899v-64h-554.667v64h554.667zM256 402.816v-64h-85.333v64h85.333zM853.333 402.816v-64h-554.667v64h554.667zM256 643.755v-64h-85.333v64h85.333zM853.333 643.755v-64h-554.667v64h554.667z" />
<glyph unicode="&#xe74d;" glyph-name="download" d="M704 554.667h64c35.346 0 64-28.654 64-64v0-362.667c0-35.346-28.654-64-64-64v0h-512c-35.346 0-64 28.654-64 64v0 362.667c0 35.346 28.654 64 64 64v0h64v-64h-64v-362.667h512v362.667h-64v64zM549.205 766.933l0.043-347.456 74.005 74.027 45.227-45.248-150.827-150.848-150.848 150.827 45.248 45.269 73.173-73.173v346.603h64z" />
<glyph unicode="&#xe74f;" glyph-name="ellipsis" d="M269.333 448c30.928 0 56-25.072 56-56s-25.072-56-56-56v0c-30.928 0-56 25.072-56 56s25.072 56 56 56v0zM512.107 448c30.928 0 56-25.072 56-56s-25.072-56-56-56v0c-30.928 0-56 25.072-56 56s25.072 56 56 56v0zM754.88 448c30.928 0 56-25.072 56-56s-25.072-56-56-56v0c-30.928 0-56 25.072-56 56s25.072 56 56 56v0z" />
<glyph unicode="&#xe759;" glyph-name="multi-language" d="M742.251 341.333v-32.427h89.749v-156.373h-89.749v-69.333h-54.891v69.333h-90.027v156.373h90.027v32.427h54.891zM768 704c35.346 0 64-28.654 64-64v0-256h-64v256h-554.667v-384l135.68 0.043 0.021-66.944 92.373 66.901 113.259 0.043v-64l-92.501-0.021-143.275-103.787c-3.467-2.539-7.817-4.062-12.523-4.062-11.782 0-21.333 9.551-21.333 21.333 0 0.003 0 0.006 0 0.009v0 86.485h-71.701c-35.346 0-64 28.654-64 64v0 384c0 35.346 28.654 64 64 64v0h554.667zM686.464 270.933h-37.461v-70.4h37.461v70.4zM780.181 270.933h-37.141v-70.4h37.163v70.4zM519.893 576l56.107-208.533h-57.173l-9.707 40.661h-58.496l-9.707-40.661h-56.917l55.872 208.533h80zM480.277 530.624h-0.512l-19.157-80.533h38.571l-18.901 80.533z" />
<glyph unicode="&#xe75a;" glyph-name="office-supplies" d="M789.333 275.691c35.346 0 64-28.654 64-64v0-192l-128 48-128-48v192c0 35.346 28.654 64 64 64v0h128zM218.56 126.997l146.603 171.029c18.667-11.669 38.827-21.184 60.117-28.203l-158.123-184.491h287.509v-64h-287.509c-35.345 0.001-63.998 28.654-63.998 64 0 15.942 5.829 30.522 15.471 41.727l-0.071-0.084 146.603 171.051zM789.333 211.669h-128v-99.627l64 23.979 64-24v99.648zM512 746.667c117.824 0 213.333-95.509 213.333-213.333s-95.509-213.333-213.333-213.333-213.333 95.509-213.333 213.333 95.509 213.333 213.333 213.333zM512 682.667c-82.475 0-149.333-66.859-149.333-149.333s66.859-149.333 149.333-149.333v0c82.475 0 149.333 66.859 149.333 149.333s-66.859 149.333-149.333 149.333v0z" />
<glyph unicode="&#xe75c;" glyph-name="pic" d="M817.365 682.667c35.346 0 64-28.654 64-64v0-469.333c0-35.346-28.654-64-64-64v0h-597.333c-35.346 0-64 28.654-64 64v0 469.333c0 35.346 28.654 64 64 64v0h597.333zM817.365 618.667h-597.333v-469.333h597.333v469.333zM746.667 524.885v-63.957c-100.608 1.451-163.307-30.293-193.493-94.229l-5.163-11.477c-44.011-95.147-129.088-142.464-249.323-140.843v64c96.235-1.6 157.931 32.384 190.933 103.040l2.539 5.632 2.624 5.845c41.664 89.664 127.488 133.333 251.883 131.989zM348.971 542.123c23.564 0 42.667-19.103 42.667-42.667s-19.103-42.667-42.667-42.667v0c-23.564 0-42.667 19.103-42.667 42.667s19.103 42.667 42.667 42.667v0z" />
<glyph unicode="&#xe75d;" glyph-name="print" d="M704 384v-384h-384v384h384zM640 320h-256v-256h256v256zM640 789.333c35.346 0 64-28.654 64-64v0-64h106.667c35.346 0 64-28.654 64-64v0-362.667c0-35.346-28.654-64-64-64v0h-64v64h64v362.667h-597.333v-362.667h64v-64h-64c-35.346 0-64 28.654-64 64v0 362.667c0 35.346 28.654 64 64 64v0h106.667v64c0 35.346 28.654 64 64 64v0h256zM426.667 533.333v-64h-149.333v64h149.333zM640 725.333h-256v-64h256v64z" />
<glyph unicode="&#xe75e;" glyph-name="QRcode" d="M493.18 365.18v-301.18h-301.18v301.18h301.18zM592 124v-60h-60v60h60zM832 204v-140h-120v60h60v80h60zM433.18 305.18h-181.18v-181.18h181.18v181.18zM652 304v-120h60v-60h-120v180h60zM392 264v-100h-100v100h100zM772 264v-60h-60v60h60zM832 364v-100h-60v40h-60v60h120zM592 364v-60h-60v60h60zM493.18 704v-301.18h-301.18v301.18h301.18zM832 704v-301.18h-301.18v301.18h301.18zM433.18 644h-181.18v-181.18h181.18v181.18zM772 644h-181.18v-181.18h181.18v181.18zM392 604v-100h-100v100h100zM732 604v-100h-100v100h100z" />
<glyph unicode="&#xe762;" glyph-name="security" d="M527.46 721.98l260-69.34c25.851-7.060 44.54-30.335 44.54-57.974 0-0.002 0-0.004 0-0.006v0-328.82c0-0.004 0-0.009 0-0.014 0-19.79-9.581-37.341-24.357-48.27l-0.163-0.115-260-190.66c-9.803-7.256-22.132-11.614-35.48-11.614s-25.677 4.358-35.643 11.73l0.163-0.115-260 190.68c-14.938 11.043-24.518 28.593-24.52 48.38v0 328.82c0 0.002 0 0.004 0 0.006 0 27.639 18.689 50.914 44.119 57.876l0.421 0.098 260 69.34c4.637 1.287 9.962 2.026 15.46 2.026s10.823-0.739 15.881-2.124l-0.421 0.098zM512 664l-260-69.34v-328.82l260-190.68 260 190.68v328.82l-260 69.34zM630.9 547.4l42.2-42.62-214.8-212.64-107.5 107.46 42.4 42.44 65.32-65.28 172.38 170.66z" />
<glyph unicode="&#xe767;" glyph-name="suggest" d="M830.784 406.699l45.099-45.397-322.283-320-14.656 14.763 14.741-14.891h-45.013v45.376l-0.149 0.149 322.261 320zM746.667 725.333c35.346 0 64-28.654 64-64v0-192l-64-64v256h-469.333v-554.667h170.667l-64-64h-106.667c-35.346 0-64 28.654-64 64v0 554.667c0 35.346 28.654 64 64 64v0h469.333zM533.333 469.333v-64h-170.667v64h170.667zM661.333 597.333v-64h-298.667v64h298.667z" />
<glyph unicode="&#xe7b0;" glyph-name="add-select" d="M546.133 702.578v-284.444h284.444v-68.267h-284.444v-284.444h-68.267v284.444h-284.444v68.267h284.444v284.444z" />
<glyph unicode="&#xe7b1;" glyph-name="sami-select" d="M810.667 416v-64h-597.333v64z" />
<glyph unicode="&#xe7b3;" glyph-name="search" d="M469.333 704c153.174 0 277.334-124.16 277.334-277.333 0-68.054-24.534-130.411-65.216-178.688l164.885-170.219-48.341-49.877-167.595 172.992c-44.586-32.225-100.349-51.542-160.624-51.542-0.156 0-0.311 0-0.467 0h0.024c-153.173 0-277.333 124.16-277.333 277.334s124.16 277.333 277.333 277.333zM469.333 640c-117.823 0-213.333-95.51-213.333-213.333s95.51-213.334 213.333-213.334 213.334 95.51 213.334 213.334-95.51 213.333-213.334 213.333z" />
<glyph unicode="&#xe900;" glyph-name="xinghao" d="M603.786 404.48l-74.911-28.636 74.885-28.636c19.077-7.363 30.1-13.23 33.044-17.638 2.924-4.408 4.408-8.822 4.408-13.23 0-11.766-2.232-18.381-6.692-19.814-3.975-1.394-8.559-2.201-13.33-2.207h-0.003c-4.49 0-8.924 1.101-13.358 3.308-4.46 2.207-9.641 5.509-15.56 9.923l-68.89 61.681 15.59-92.524c1.459-4.408 2.207-8.458 2.207-12.124v-7.721c0-8.817-2.207-15.068-6.666-18.714-4.465-3.692-9.641-5.509-15.565-5.509-4.541 0-9.436 1.459-14.74 4.408-5.304 2.924-7.921 9.533-7.921 19.814 0 2.924 0.384 5.868 1.126 8.822 0.768 2.924 1.132 6.615 1.132 11.028l18.099 92.518-70.195-61.681c-3.745-2.487-8.56-5.409-13.477-8.17l-1.263-0.652c-5.309-2.949-10.179-4.408-14.689-4.408-4.541 0-9.052 1.459-13.588 4.408-4.536 2.918-6.789 8.822-6.789 17.633 0 5.868 2.202 11.023 6.61 15.437s14.664 9.539 30.838 15.437l74.967 28.611-74.911 28.636c-10.281 4.408-19.098 8.433-26.435 12.129-7.357 3.666-11.018 9.923-11.018 18.714 0 7.332 2.202 12.846 6.641 16.532 4.46 3.64 8.868 5.509 13.353 5.509 4.434 0 9.257-1.101 14.459-3.308 5.156-2.207 9.969-5.514 14.459-9.923l68.91-61.681-15.56 92.524c0 4.408-0.384 8.049-1.132 11.023-0.699 2.595-1.101 5.574-1.101 8.647 0 0.059 0 0.119 0 0.178v-0.009c0 5.873 2.202 11.361 6.666 16.538 4.46 5.1 9.667 7.69 15.56 7.69 9.073 0 15.048-2.949 18.125-8.822 3-5.868 4.541-11.023 4.541-15.437v-9.923c0-3.692-0.768-6.973-2.284-9.923l-18.099-92.498 70.17 61.681c6.031 5.868 11.284 9.539 15.846 11.023 4.052 1.381 8.72 2.187 13.574 2.207h0.010c6.031 0 10.926-2.207 14.694-6.615 3.549-4.041 5.715-9.373 5.715-15.211 0-0.077 0-0.155-0.001-0.232v0.012c0-5.873-1.49-10.665-4.408-14.336-2.975-3.645-13.972-9.16-33.044-16.492z" />
</font>
</defs>
</svg>
