<?xml version="1.0" standalone="no"?><!DOCTYPE svg PUBLIC "-//W3C//DTD SVG 1.1//EN" "http://www.w3.org/Graphics/SVG/1.1/DTD/svg11.dtd"><svg t="1594789874578" class="icon" viewBox="0 0 1024 1024" version="1.1" xmlns="http://www.w3.org/2000/svg" p-id="2200" width="32" height="32" xmlns:xlink="http://www.w3.org/1999/xlink"><defs><style type="text/css"></style></defs><path d="M114.184192 936.365056c-7.08096-0.013312-13.877248-2.832384-18.895872-7.836672-7.126016-7.126016-9.732096-17.601536-6.784-27.2384 0.575488-1.888256 58.07616-190.170112 69.574656-232.603648 1.241088-4.566016 3.653632-8.7296 6.990848-12.080128 0 0 509.130752-509.3376 524.081152-524.120064 27.316224-27.3152 63.917056-43.313152 102.509568-44.839936 35.837952 0.81408 69.891072 15.791104 94.697472 41.658368 32.720896 31.427584 49.664 65.067008 50.335744 100.026368 0.51712 35.385344-15.63648 70.36928-48.21504 103.969792C856.962048 365.852672 382.084096 835.446784 361.869312 855.415808c-3.130368 3.091456-6.971392 5.366784-11.1872 6.622208-31.983616 9.532416-226.31936 72.361984-228.28544 72.994816C119.745536 935.899136 116.977664 936.351744 114.184192 936.365056zM207.98976 690.025472c-10.010624 35.617792-39.821312 125.582336-56.680448 181.064704 55.845888-17.989632 146.818048-49.508352 177.650688-59.014144 50.762752-50.20672 491.568128-486.20032 521.107456-516.632576 22.116352-22.852608 33.23904-44.762112 32.850944-65.119232-0.401408-19.8656-11.666432-40.687616-33.652736-61.743104-14.938112-16.128-35.631104-25.737216-57.604096-26.732544-24.418304 1.732608-47.439872 12.105728-64.900096 29.28128-14.097408 13.903872-465.927168 465.946624-518.837248 518.883328L207.98976 690.025472zM350.358528 853.7088c-13.57312-0.064512-24.98048-10.20416-26.62912-23.681024-6.265856-30.871552-21.462016-59.220992-43.701248-81.517568-22.464512-24.482816-52.036608-41.295872-84.563968-48.086016-14.711808-1.900544-25.174016-15.273984-23.48032-30.005248 1.532928-14.70464 14.698496-25.388032 29.396992-23.84896 0.013312 0 0.032768 0 0.045056 0 88.92928 17.84832 158.303232 87.597056 175.660032 176.616448 1.913856 14.795776-8.497152 28.337152-23.279616 30.28992-1.164288 0.154624-2.33472 0.22016-3.511296 0.22016L350.358528 853.7088zM828.883968 369.137664c-13.580288-0.052224-24.987648-10.20416-26.616832-23.681024-14.304256-64.290816-64.200704-114.678784-128.336896-129.603584-14.70464-1.94048-25.12896-15.300608-23.447552-30.031872 1.513472-14.665728 14.62784-25.34912 29.30688-23.84896 0.0256 0.012288 0.064512 0.012288 0.103424 0.012288 44.724224 8.070144 85.644288 30.367744 116.683776 63.566848 30.716928 30.78144 51.318784 70.189056 59.053056 112.985088 2.018304 14.731264-8.276992 28.310528-23.020544 30.328832-1.2544 0.181248-2.522112 0.258048-3.802112 0.258048L828.883968 369.137664z" p-id="2201" fill="#000000"></path></svg>